<?xml version="1.0" standalone="no"?>
<!DOCTYPE svg PUBLIC "-//W3C//DTD SVG 20010904//EN"
 "http://www.w3.org/TR/2001/REC-SVG-20010904/DTD/svg10.dtd">
<svg version="1.0" xmlns="http://www.w3.org/2000/svg"
 width="224.000000pt" height="224.000000pt" viewBox="0 0 224.000000 224.000000"
 preserveAspectRatio="xMidYMid meet">
<metadata>
Created by potrace 1.11, written by Peter Selinger 2001-2013
</metadata>
<g transform="translate(0.000000,224.000000) scale(0.100000,-0.100000)"
fill="#000000" stroke="none">
<path d="M1005 2156 c-66 -16 -150 -62 -182 -101 -15 -16 -38 -55 -52 -85 -34
-74 -34 -194 -1 -261 26 -52 80 -105 132 -128 l37 -17 -58 -12 c-75 -16 -121
-47 -146 -99 l-20 -42 -32 25 c-108 84 -294 96 -440 27 -66 -31 -136 -108
-158 -174 -23 -68 -21 -178 4 -235 22 -49 87 -116 132 -134 36 -15 37 -25 1
-28 -104 -8 -174 -68 -174 -147 0 -54 12 -75 58 -105 l44 -27 -33 -23 c-103
-72 -141 -215 -88 -336 53 -119 224 -188 448 -180 117 4 177 17 260 57 119 57
192 162 201 290 10 157 -72 252 -249 288 -91 18 -175 28 -293 36 -86 5 -125
13 -154 31 -61 39 2 74 142 81 123 6 198 23 262 61 l49 28 23 -45 c52 -107
214 -170 424 -165 175 5 314 55 389 143 43 49 43 49 72 34 64 -33 117 -45 234
-53 151 -11 214 -37 178 -74 -20 -20 -72 -33 -160 -41 -95 -7 -163 -15 -205
-21 -19 -3 -50 -7 -69 -9 -65 -8 -158 -46 -198 -80 -67 -57 -92 -147 -72 -260
13 -75 45 -131 105 -184 90 -79 194 -112 364 -115 179 -4 303 31 383 107 47
45 68 95 73 170 5 100 -40 194 -118 245 l-27 18 44 23 c117 62 62 224 -83 247
-26 5 -50 7 -54 6 -5 -1 -8 2 -8 6 0 5 15 16 34 24 53 26 103 75 127 126 34
69 32 186 -3 263 -61 134 -187 199 -376 195 -73 -1 -97 -6 -143 -29 -31 -15
-64 -36 -73 -46 -18 -20 -19 -19 -72 16 -58 39 -127 52 -197 39 -42 -8 -91
-51 -83 -72 5 -13 -4 -15 -67 -10 -39 2 -77 5 -84 5 -6 1 -15 10 -18 21 -8 25
-45 50 -88 60 l-32 7 40 11 c22 6 85 13 140 16 108 6 135 12 206 45 155 73
221 278 140 430 -11 19 -10 26 5 42 19 21 70 38 96 31 9 -2 21 -16 26 -31 16
-45 38 -61 79 -55 47 6 61 18 69 60 21 111 -155 147 -288 59 l-40 -26 -38 26
c-90 62 -220 82 -345 51z m206 -83 c44 -37 60 -82 66 -182 12 -203 -47 -301
-178 -296 -97 4 -150 79 -155 220 -7 190 54 284 183 285 42 0 58 -5 84 -27z
m-671 -668 c39 -37 60 -109 61 -205 1 -193 -51 -271 -178 -266 -65 2 -100 26
-132 90 -20 40 -24 63 -24 144 -2 188 62 277 191 269 41 -3 59 -10 82 -32z
m1362 -2 c43 -40 69 -104 75 -186 13 -179 -50 -287 -168 -287 -133 0 -198 150
-158 365 20 108 67 149 163 141 46 -3 64 -10 88 -33z m-444 -13 c58 -36 37
-57 -34 -34 -27 9 -55 18 -63 20 -11 3 -11 7 -1 19 17 21 59 19 98 -5z m-640
-122 c-20 -12 -25 -10 -31 11 -4 17 -2 18 19 9 18 -8 21 -14 12 -20z m277 -22
c44 -3 91 -8 105 -11 193 -37 261 -88 255 -195 -3 -80 -55 -148 -142 -191 -40
-20 -63 -24 -138 -23 -75 0 -100 5 -147 26 -64 30 -116 79 -144 135 -25 51
-25 155 0 203 31 59 43 68 89 64 23 -1 78 -5 122 -8z m-580 -672 c216 -30 310
-135 244 -271 -71 -147 -282 -189 -452 -90 -120 70 -156 222 -83 346 l20 34
115 -7 c64 -3 134 -9 156 -12z m1514 -34 c33 -60 35 -165 3 -226 -37 -73 -105
-122 -202 -144 -188 -45 -361 57 -364 214 -1 94 62 147 214 179 90 20 118 22
235 22 l90 0 24 -45z"/>
</g>
</svg>
